HIERARCHY
ROOT joint_Root
{
	OFFSET 0.0 0.0 0.0
	CHANNELS 6 Xposition Yposition Zposition Zrotation Xrotation Yrotation 
	JOINT Hips
	{
		OFFSET -0.726466 93.3139 -2.00062
		CHANNELS 6 Xposition Yposition Zposition Zrotation Xrotation Yrotation 
		JOINT Spine
		{
			OFFSET 15.7357 0.0 0.0
			CHANNELS 6 Xposition Yposition Zposition Zrotation Xrotation Yrotation 
			JOINT Chest
			{
				OFFSET 8.98455 -0.406207 0.0
				CHANNELS 6 Xposition Yposition Zposition Zrotation Xrotation Yrotation 
				JOINT Neck
				{
					OFFSET 16.3773 0.0 0.0
					CHANNELS 6 Xposition Yposition Zposition Zrotation Xrotation Yrotation 
					JOINT Head
					{
						OFFSET 6.45672 0.0 0.0
						CHANNELS 6 Xposition Yposition Zposition Zrotation Xrotation Yrotation 
						End Site
						{
							OFFSET 0.0 0.0 0.0
						}
					}
				}
				JOINT Shoulder_L
				{
					OFFSET 12.9942 -0.242716 4.98039
					CHANNELS 6 Xposition Yposition Zposition Zrotation Xrotation Yrotation 
					JOINT UpperArm_L
					{
						OFFSET 5.34809 0.0 0.0
						CHANNELS 6 Xposition Yposition Zposition Zrotation Xrotation Yrotation 
						JOINT LowerArm_L
						{
							OFFSET 24.3286 1.87007e-05 0.0
							CHANNELS 6 Xposition Yposition Zposition Zrotation Xrotation Yrotation 
							JOINT Hand_L
							{
								OFFSET 22.2916 0.0 0.0
								CHANNELS 6 Xposition Yposition Zposition Zrotation Xrotation Yrotation 
								End Site
								{
									OFFSET 0.0 0.0 0.0
								}
							}
						}
					}
				}
				JOINT Shoulder_R
				{
					OFFSET 12.9945 -0.242716 -4.98039
					CHANNELS 6 Xposition Yposition Zposition Zrotation Xrotation Yrotation 
					JOINT UpperArm_R
					{
						OFFSET -5.34813 0.0 0.0
						CHANNELS 6 Xposition Yposition Zposition Zrotation Xrotation Yrotation 
						JOINT LowerArm_R
						{
							OFFSET -24.3289 0.000322201 0.0
							CHANNELS 6 Xposition Yposition Zposition Zrotation Xrotation Yrotation 
							JOINT Hand_R
							{
								OFFSET -22.2915 -0.000108084 0.0
								CHANNELS 6 Xposition Yposition Zposition Zrotation Xrotation Yrotation 
								End Site
								{
									OFFSET 0.0 0.0 0.0
								}
							}
						}
					}
				}
			}
		}
		JOINT UpperLeg_L
		{
			OFFSET -2.19248 -6.46944 0.0
			CHANNELS 6 Xposition Yposition Zposition Zrotation Xrotation Yrotation 
			JOINT LowerLeg_L
			{
				OFFSET 39.0811 0.0 -1.23785e-05
				CHANNELS 6 Xposition Yposition Zposition Zrotation Xrotation Yrotation 
				JOINT Foot_L
				{
					OFFSET 40.9854 0.0 -1.26872e-05
					CHANNELS 6 Xposition Yposition Zposition Zrotation Xrotation Yrotation 
					JOINT Toes_L
					{
						OFFSET 11.7543 0.0 0.0
						CHANNELS 6 Xposition Yposition Zposition Zrotation Xrotation Yrotation 
						End Site
						{
							OFFSET 0.0 0.0 0.0
						}
					}
				}
			}
		}
		JOINT UpperLeg_R
		{
			OFFSET -2.19251 6.46944 0.0
			CHANNELS 6 Xposition Yposition Zposition Zrotation Xrotation Yrotation 
			JOINT LowerLeg_R
			{
				OFFSET -39.0811 -0.00228153 -0.0401928
				CHANNELS 6 Xposition Yposition Zposition Zrotation Xrotation Yrotation 
				JOINT Foot_R
				{
					OFFSET -40.9854 0.0 0.0
					CHANNELS 6 Xposition Yposition Zposition Zrotation Xrotation Yrotation 
					JOINT Toes_R
					{
						OFFSET -11.7543 0.0 0.0
						CHANNELS 6 Xposition Yposition Zposition Zrotation Xrotation Yrotation 
						End Site
						{
							OFFSET 0.0 0.0 0.0
						}
					}
				}
			}
		}
	}
}
MOTION
Frames:	8
Frame Time:	0.0333333
0.000000 0.000000 0.000000 0.000000 0.000000 -0.000000 96.861900 87.374800 177.774000 -84.049200 44.209300 -178.860000 15.735700 0.000005 -0.000001 105.027000 82.517100 -105.299000 8.984550 -0.406207 -0.000000 6.708900 3.870380 -0.770954 16.377300 -0.000001 -0.000001 3.193900 9.448960 -1.167720 6.456720 -0.000001 -0.000000 1.891910 12.163900 -5.225040 12.994200 -0.242716 4.980390 -89.311200 -1.610990 -66.844900 5.348090 -0.000007 -0.000001 -76.884700 18.729600 -1.150650 24.328600 0.000019 0.000005 2.071880 8.563960 -13.657100 22.291600 -0.000001 0.000005 1.913150 5.351020 -1.409020 12.994500 -0.242716 -4.980390 88.514500 5.271860 -74.238900 -5.348130 -0.000001 -0.000004 -55.337200 24.101700 -25.316800 -24.328900 0.000322 -0.000009 2.486110 4.182670 -30.775300 -22.291500 -0.000108 -0.000004 11.697800 5.444780 -4.457190 -2.192480 -6.469440 -0.000000 171.138000 -9.671540 -24.083500 39.081100 -0.000007 -0.000012 0.054892 -0.072870 36.989800 40.985400 -0.000006 -0.000013 12.961900 -11.105500 -59.954700 11.754300 -0.000000 0.000003 -0.004093 -0.052415 -18.708900 -2.192510 6.469440 -0.000001 171.584000 12.777400 177.055000 -39.081100 -0.002282 -0.040193 0.229119 -0.117321 62.558800 -40.985400 0.000008 0.000006 0.056116 -3.258020 -29.121500 -11.754300 -0.000006 -0.000006 -0.026254 -0.199753 -24.748200
0.000000 0.000000 0.000000 0.000000 0.000000 -0.000000 98.905400 87.471900 174.709000 -84.626500 41.090800 -177.911000 15.735700 0.000005 -0.000001 100.717000 82.530800 -101.022000 8.984550 -0.406207 -0.000000 6.925530 2.770840 -0.776710 16.377300 -0.000001 -0.000001 3.546910 9.183000 -1.686800 6.456720 -0.000001 -0.000000 2.519040 12.065800 -5.584910 12.994200 -0.242716 4.980390 -89.539300 -1.087010 -67.032400 5.348090 -0.000007 -0.000001 -76.444300 22.937000 -4.355750 24.328600 0.000019 0.000005 2.243500 7.237430 -17.278700 22.291600 -0.000001 0.000005 1.566950 5.368060 -1.924180 12.994500 -0.242716 -4.980390 88.407500 5.500670 -73.826200 -5.348130 -0.000001 -0.000004 -55.652100 28.128900 -22.678000 -24.328900 0.000322 -0.000009 2.915240 4.963930 -30.488300 -22.291500 -0.000108 -0.000004 9.957500 5.458090 -4.931860 -2.192480 -6.469440 -0.000000 170.576000 -9.744190 -21.086700 39.081100 -0.000007 -0.000012 0.070262 -0.089647 38.087600 40.985400 -0.000006 -0.000013 13.307300 -8.996720 -63.667200 11.754300 -0.000000 0.000003 -0.003605 -0.047274 -18.499600 -2.192510 6.469440 -0.000001 172.535000 9.449390 172.401000 -39.081100 -0.002282 -0.040193 0.104356 -0.038378 69.238200 -40.985400 0.000008 0.000006 0.190857 -1.695540 -32.873600 -11.754300 -0.000006 -0.000006 -0.027234 -0.204493 -24.944400
0.000000 0.000000 0.000000 0.000000 0.000000 -0.000000 100.817000 87.942300 171.841000 -84.246300 36.834800 -177.664000 15.735700 0.000005 -0.000001 95.232000 82.605200 -95.200900 8.984550 -0.406207 -0.000000 6.962950 1.343820 -0.019666 16.377300 -0.000001 -0.000001 4.127620 8.451800 -2.135610 6.456720 -0.000001 -0.000000 3.163990 11.877400 -5.470330 12.994200 -0.242716 4.980390 -89.771000 -0.554177 -67.547800 5.348090 -0.000007 -0.000001 -75.308500 27.366300 -7.496430 24.328600 0.000019 0.000005 2.280540 5.548100 -22.395200 22.291600 -0.000001 0.000005 3.457650 5.418520 -3.533630 12.994500 -0.242716 -4.980390 88.305300 5.534930 -72.946500 -5.348130 -0.000001 -0.000004 -56.650800 31.806700 -19.924300 -24.328900 0.000322 -0.000009 3.627010 6.545860 -29.087100 -22.291500 -0.000108 -0.000004 8.355420 5.462570 -5.094380 -2.192480 -6.469440 -0.000000 171.043000 -7.557210 -17.185300 39.081100 -0.000007 -0.000012 0.082053 -0.107844 37.265200 40.985400 -0.000006 -0.000013 13.463700 -7.491300 -65.963500 11.754300 -0.000000 0.000003 -0.003325 -0.044238 -18.376000 -2.192510 6.469440 -0.000001 173.879000 7.710550 168.626000 -39.081100 -0.002282 -0.040193 0.012443 -0.003065 71.858500 -40.985400 0.000008 0.000006 0.651552 -0.954098 -37.368900 -11.754300 -0.000006 -0.000006 -0.026719 -0.202012 -24.841700
0.000000 0.000000 0.000000 0.000000 0.000000 -0.000000 102.658000 88.631700 169.203000 -83.299400 31.857500 -177.669000 15.735700 0.000005 -0.000001 89.883600 82.602600 -89.229900 8.984550 -0.406207 -0.000000 7.029170 -0.034153 1.308040 16.377300 -0.000001 -0.000001 4.710560 7.177890 -2.326650 6.456720 -0.000001 -0.000000 3.532010 11.455600 -5.209200 12.994200 -0.242716 4.980390 -89.765400 -0.596785 -68.537900 5.348090 -0.000007 -0.000001 -74.025400 32.093100 -10.989500 24.328600 0.000019 0.000005 2.124290 3.984440 -28.107300 22.291600 -0.000001 0.000005 6.457090 5.473820 -5.498800 12.994500 -0.242716 -4.980390 88.368000 4.961150 -71.764000 -5.348130 -0.000001 -0.000004 -59.538100 33.383400 -16.112300 -24.328900 0.000322 -0.000009 4.434270 8.616510 -27.373400 -22.291500 -0.000108 -0.000004 6.545130 5.449100 -4.603500 -2.192480 -6.469440 -0.000000 172.263000 -5.047020 -12.821100 39.081100 -0.000007 -0.000012 0.085549 -0.120926 35.277000 40.985400 -0.000006 -0.000013 13.699000 -5.324460 -67.569000 11.754300 -0.000000 0.000003 -0.002972 -0.040290 -18.215300 -2.192510 6.469440 -0.000001 175.601000 7.268540 165.697000 -39.081100 -0.002282 -0.040193 -0.033750 0.012988 70.587300 -40.985400 0.000008 0.000006 1.710800 -3.675680 -40.401200 -11.754300 -0.000006 -0.000006 -0.025900 -0.198019 -24.676400
0.000000 0.000000 0.000000 0.000000 0.000000 -0.000000 104.379000 89.431400 166.697000 -82.159200 26.701800 -177.959000 15.735700 0.000005 -0.000001 84.975800 82.605400 -83.635400 8.984550 -0.406207 -0.000000 6.984350 -1.299910 2.757200 16.377300 -0.000001 -0.000001 5.021910 5.800870 -2.267660 6.456720 -0.000001 -0.000000 3.690150 10.716100 -4.621950 12.994200 -0.242716 4.980390 -89.678800 -0.866013 -69.647600 5.348090 -0.000007 -0.000001 -71.904400 36.174000 -15.077900 24.328600 0.000019 0.000005 1.757400 2.595630 -34.124000 22.291600 -0.000001 0.000005 8.694540 5.518180 -7.278870 12.994500 -0.242716 -4.980390 88.414800 4.540740 -70.732200 -5.348130 -0.000001 -0.000004 -63.140600 33.001300 -11.484100 -24.328900 0.000322 -0.000009 4.375230 9.153050 -25.691500 -22.291500 -0.000108 -0.000004 5.360300 5.429040 -3.904890 -2.192480 -6.469440 -0.000000 173.960000 -2.970860 -8.533970 39.081100 -0.000007 -0.000012 0.065120 -0.102860 32.337200 40.985400 -0.000006 -0.000013 14.093600 -2.279670 -68.702600 11.754300 -0.000000 0.000003 -0.002465 -0.034397 -17.975500 -2.192510 6.469440 -0.000001 177.539000 6.923040 163.561000 -39.081100 -0.002282 -0.040193 -0.054934 0.026067 65.833400 -40.985400 0.000008 0.000006 3.795950 -7.300560 -44.389000 -11.754300 -0.000006 -0.000006 -0.025258 -0.194844 -24.545100
0.000000 0.000000 0.000000 0.000000 0.000000 -0.000000 105.972000 90.200300 164.350000 -81.282000 21.478400 -178.587000 15.735700 0.000005 -0.000001 79.724100 82.597400 -77.793900 8.984550 -0.406207 -0.000000 6.854950 -2.647680 4.015280 16.377300 -0.000001 -0.000001 4.753890 4.546440 -2.028480 6.456720 -0.000001 -0.000000 3.606050 9.700970 -3.924330 12.994200 -0.242716 4.980390 -89.594400 -1.154170 -70.633700 5.348090 -0.000007 -0.000001 -68.715600 39.074400 -20.083300 24.328600 0.000019 0.000005 1.588510 1.885880 -40.129300 22.291600 -0.000001 0.000005 9.262480 5.537300 -8.120270 12.994500 -0.242716 -4.980390 88.373800 4.488380 -70.059900 -5.348130 -0.000001 -0.000004 -66.483300 31.014200 -7.301290 -24.328900 0.000322 -0.000009 3.732730 8.611380 -23.548200 -22.291500 -0.000108 -0.000004 5.121690 5.424330 -3.745460 -2.192480 -6.469440 -0.000000 175.645000 -0.684125 -4.881000 39.081100 -0.000007 -0.000012 0.019080 -0.034700 28.803300 40.985400 -0.000006 -0.000013 14.369000 0.788734 -69.335600 11.754300 -0.000000 0.000003 -0.002258 -0.031902 -17.874000 -2.192510 6.469440 -0.000001 179.079000 6.058740 161.844000 -39.081100 -0.002282 -0.040193 -0.045852 0.030638 58.017300 -40.985400 0.000008 0.000006 4.917800 -10.672300 -48.280400 -11.754300 -0.000006 -0.000006 -0.023793 -0.187456 -24.239800
0.000000 0.000000 0.000000 0.000000 0.000000 -0.000000 107.602000 90.727500 162.091000 -80.641900 16.697900 -179.050000 15.735700 0.000005 -0.000001 75.673500 82.502200 -73.276500 8.984550 -0.406207 -0.000000 6.856700 -3.717390 5.012900 16.377300 -0.000001 -0.000001 4.356200 3.384220 -1.502180 6.456720 -0.000001 -0.000000 3.120900 8.574280 -3.403080 12.994200 -0.242716 4.980390 -89.473400 -1.564610 -71.393100 5.348090 -0.000007 -0.000001 -64.585000 41.273000 -26.042600 24.328600 0.000019 0.000005 1.211700 1.198910 -45.307400 22.291600 -0.000001 0.000005 9.089660 5.551300 -8.767710 12.994500 -0.242716 -4.980390 88.257000 4.648650 -69.420000 -5.348130 -0.000001 -0.000004 -69.191700 28.408900 -4.070420 -24.328900 0.000322 -0.000009 3.156250 8.326440 -20.852800 -22.291500 -0.000108 -0.000004 5.452380 5.427210 -3.843960 -2.192480 -6.469440 -0.000000 177.255000 1.841850 -1.747460 39.081100 -0.000007 -0.000012 -0.021209 0.043835 25.820100 40.985400 -0.000006 -0.000013 14.309000 3.117160 -70.052600 11.754300 -0.000000 0.000003 -0.002403 -0.033653 -17.945300 -2.192510 6.469440 -0.000001 -179.936000 4.380900 161.019000 -39.081100 -0.002282 -0.040193 -0.023217 0.024002 47.801300 -40.985400 0.000008 0.000006 4.915180 -13.027000 -50.442700 -11.754300 -0.000006 -0.000006 -0.022603 -0.181303 -23.985700
0.000000 0.000000 0.000000 0.000000 0.000000 -0.000000 109.186000 90.847000 159.876000 -80.661000 12.862100 -179.556000 15.735700 0.000005 -0.000001 73.157300 82.535800 -70.566700 8.984550 -0.406207 -0.000000 6.640230 -4.337380 5.429290 16.377300 -0.000001 -0.000001 3.930960 2.286500 -0.826276 6.456720 -0.000001 -0.000000 2.543670 7.469210 -2.987700 12.994200 -0.242716 4.980390 -89.303000 -2.136860 -71.930200 5.348090 -0.000007 -0.000001 -60.069700 42.756700 -32.221100 24.328600 0.000019 0.000005 1.164510 0.989604 -49.644600 22.291600 -0.000001 0.000005 8.919690 5.559290 -9.152160 12.994500 -0.242716 -4.980390 88.153300 4.792170 -68.896600 -5.348130 -0.000001 -0.000004 -71.357100 25.924400 -1.756040 -24.328900 0.000322 -0.000009 2.849990 8.980900 -17.695700 -22.291500 -0.000108 -0.000004 6.017950 5.414990 -3.431860 -2.192480 -6.469440 -0.000000 178.212000 3.708710 0.301826 39.081100 -0.000007 -0.000012 -0.025400 0.056875 24.065400 40.985400 -0.000006 -0.000013 14.264300 4.998410 -71.277800 11.754300 -0.000000 0.000003 -0.002902 -0.039499 -18.183100 -2.192510 6.469440 -0.000001 -179.902000 3.305260 160.245000 -39.081100 -0.002282 -0.040193 0.000107 0.004268 36.690100 -40.985400 0.000008 0.000006 4.475010 -12.712400 -50.877900 -11.754300 -0.000006 -0.000006 -0.023095 -0.183866 -24.091500
